# xmcd
#
# Track frame offsets:
# 150
# 15476
# 30648
# 47172
# 61209
# 81822
# 94159
# 108287
# 122805
# 137155
# 153512
# 169604
# 181670
# 200130
# 214076
# 234382
# 246970
# 260185
# 275169
# 289227
#
# Disc length: 3996 seconds
#
#
# Revision: 0
# Processed by: cddbd v1.5.2PL0 Copyright (c) Steve Scherf et al.
# Submitted via: FreeRIP 2.945 
#
DISCID=250f9a14
DTITLE=Richard Clayderman - Songs of Love
DYEAR=1900
DGENRE=Blues
TTITLE0=have i told you lately
TTITLE1=you don't know love
TTITLE2=from a distance
TTITLE3=stuck on you
TTITLE4=when you tell me that you love me
TTITLE5=everytime you go away
TTITLE6=all by myself
TTITLE7=eternal flame
TTITLE8=can you feel the love tonight
TTITLE9=un-break my heart
TTITLE10=sacrifice
TTITLE11=perhaps love
TTITLE12=i will always love you
TTITLE13=candle in the wind
TTITLE14=i don't want to miss a thing
TTITLE15=you are the sunshine of my lief
TTITLE16=up where we belong
TTITLE17=wind beneath my wings
TTITLE18=dust in the wind
TTITLE19=only you
EXTD=The Lost Music World
EXTT0=
EXTT1=
EXTT2=
EXTT3=
EXTT4=
EXTT5=
EXTT6=
EXTT7=
EXTT8=
EXTT9=
EXTT10=
EXTT11=
EXTT12=
EXTT13=
EXTT14=
EXTT15=
EXTT16=
EXTT17=
EXTT18=
EXTT19=
PLAYORDER=
